<?xml version="1.0" encoding="utf-8"?>
<!-- Generator: Adobe Illustrator 28.3.0, SVG Export Plug-In . SVG Version: 6.00 Build 0)  -->
<svg version="1.1" id="Layer_1" xmlns="http://www.w3.org/2000/svg" xmlns:xlink="http://www.w3.org/1999/xlink" x="0px" y="0px"
	 viewBox="0 0 210.31 212.9" style="enable-background:new 0 0 210.31 212.9;" xml:space="preserve">
<style type="text/css">
	.st0{fill:#1496FF;}
	.st1{fill:#1284EA;}
	.st2{fill:#B4DC00;}
	.st3{fill:#6F2DA8;}
	.st4{fill:#591F91;}
	.st5{fill:#73BE28;}
</style>
<g>
	<path class="st0" d="M71.2,17.75c-2.7,14.5-6.2,35.9-8,57.6c-3.2,38.4-1.2,64-1.2,64l-53.9,51.3c0,0-4.2-28.8-6.3-61.2
		c-1.3-20-1.7-37.7-1.8-48.4c0-0.6,0.3-1.2,0.3-1.8c0-0.7,0.9-7.9,7.9-14.5C15.9,57.45,72,13.45,71.2,17.75z"/>
	<path class="st1" d="M71.2,17.75c-2.7,14.5-6.2,35.9-8,57.6c0,0-59.7-7.1-63.2,7.3c0-0.7,1-9.5,8-16.2
		C15.7,59.05,72,13.45,71.2,17.75z"/>
	<path class="st2" d="M0,79.25c0,1,0,2.1,0,3.3c0.6-2.6,1.6-4.5,3.8-7.2c4.4-5.6,11.6-7.1,14.5-7.5c14.6-1.9,36.2-4.3,57.9-4.9
		c38.5-1.2,63.9,2,63.9,2l53.9-51.3c0,0-28.3-5.4-60.6-9.2c-21.1-2.5-39.7-3.8-50.1-4.4c-0.7,0-8.2-1-15.2,5.7
		c-7.7,7.3-46.3,43.9-61.8,58.7C-0.5,71.05,0,78.55,0,79.25z"/>
	<path class="st3" d="M192.1,144.75c-14.6,2-36.1,4.4-57.9,5.1c-38.5,1.3-64-1.9-64-1.9l-54,51.3c0,0,28.6,5.6,60.8,9.3
		c19.7,2.3,37.3,3.5,47.9,4.1c0.7,0,2-0.6,2.7-0.6c0.7,0,8.2-1.3,15.2-8C150.6,196.75,196.4,144.25,192.1,144.75z"/>
	<path class="st4" d="M192.1,144.75c-14.6,2-36.1,4.4-57.9,5.1c0,0,4.2,60-10.4,62.7c0.7,0,10.6-0.5,17.6-7.1
		C149.1,198.15,196.4,144.25,192.1,144.75z"/>
	<path class="st5" d="M127.1,212.85c-1-0.1-2.1-0.1-3.3-0.2c2.7-0.5,4.5-1.4,7.4-3.4c5.8-4.2,7.7-11.2,8.2-14.1
		c2.6-14.5,6-35.9,7.8-57.6c3.1-38.4,1.1-63.9,1.1-63.9l53.9-51.3c0,0,4,28.5,6.2,60.9c1.4,21.2,1.8,39.8,1.9,50.2
		c0,0.7,0.6,8.2-6.4,14.9c-7.7,7.3-46.2,44.1-61.7,58.9C135.3,213.75,127.8,212.85,127.1,212.85z"/>
</g>
</svg>
